<?xml version="1.0" encoding="UTF-8"?>
<svg id="Layer_2" data-name="Layer 2" xmlns="http://www.w3.org/2000/svg" xmlns:xlink="http://www.w3.org/1999/xlink" viewBox="0 0 596.96 838.27">
  <defs>
    <style>
      .cls-1 {
        fill: url(#radial-gradient-2);
      }

      .cls-2 {
        fill: url(#linear-gradient-7);
      }

      .cls-3 {
        fill: url(#linear-gradient-5);
      }

      .cls-4 {
        fill: url(#linear-gradient-6);
      }

      .cls-5 {
        fill: url(#linear-gradient-4);
      }

      .cls-6 {
        fill: url(#linear-gradient-3);
      }

      .cls-7 {
        fill: url(#linear-gradient-2);
      }

      .cls-8 {
        fill: url(#radial-gradient);
      }

      .cls-9 {
        fill: url(#linear-gradient);
      }
    </style>
    <linearGradient id="linear-gradient" x1="436.91" y1="722.22" x2="49.88" y2="488.81" gradientUnits="userSpaceOnUse">
      <stop offset=".12" stop-color="#de3612"/>
      <stop offset=".82" stop-color="#ffc71e"/>
    </linearGradient>
    <linearGradient id="linear-gradient-2" x1="424.82" y1="64.24" x2="452.37" y2="750.67" gradientUnits="userSpaceOnUse">
      <stop offset=".15" stop-color="#ffde17"/>
      <stop offset=".82" stop-color="#f7941e"/>
    </linearGradient>
    <linearGradient id="linear-gradient-3" x1="502.49" y1="729.06" x2="232.71" y2="318.03" gradientUnits="userSpaceOnUse">
      <stop offset=".44" stop-color="#f15a29"/>
      <stop offset=".82" stop-color="#f7941e"/>
    </linearGradient>
    <linearGradient id="linear-gradient-4" x1="-213.7" y1="215.82" x2="481.17" y2="796.9" gradientUnits="userSpaceOnUse">
      <stop offset=".02" stop-color="#de3612"/>
      <stop offset=".97" stop-color="#ffc71e"/>
    </linearGradient>
    <linearGradient id="linear-gradient-5" x1="444.19" y1="1061.4" x2="328.46" y2="-189.29" gradientUnits="userSpaceOnUse">
      <stop offset="0" stop-color="#ffde17"/>
      <stop offset="1" stop-color="#f7941e"/>
    </linearGradient>
    <radialGradient id="radial-gradient" cx="208.05" cy="395.5" fx="208.05" fy="395.5" r="314.68" gradientUnits="userSpaceOnUse">
      <stop offset=".15" stop-color="#ffde17"/>
      <stop offset="1" stop-color="#f15a29"/>
    </radialGradient>
    <linearGradient id="linear-gradient-6" x1="254.68" y1="520.55" x2="131.27" y2="323.57" gradientUnits="userSpaceOnUse">
      <stop offset=".12" stop-color="#fff200"/>
      <stop offset=".82" stop-color="#f7941e"/>
    </linearGradient>
    <linearGradient id="linear-gradient-7" x1="164.11" y1="332.31" x2="240.25" y2="460.22" gradientUnits="userSpaceOnUse">
      <stop offset="0" stop-color="#fff200"/>
      <stop offset="1" stop-color="#f7941e"/>
    </linearGradient>
    <radialGradient id="radial-gradient-2" cx="201.48" cy="590.36" fx="201.48" fy="590.36" r="163.21" xlink:href="#radial-gradient"/>
  </defs>
  <g id="graphics">
    <g>
      <path class="cls-9" d="M385.92,662.54c1.32-15.3,14.02-112.17-90.09-242.87,7.16,12.89,11.28,27.7,11.28,43.49,0,78.71-94.65,117.21-153.08,63.79-54.71-50.01-61.06-158.62-15.6-233.76C55.31,345.38,0,437.81,0,543.2c0,94.7,36.36,183.14,114.02,232.9,40.8,28.62,101.12,39.2,155.53,25.5,61.83-15.57,110.37-69.67,116.37-139.07Z"/>
      <path class="cls-7" d="M484.65,306.25C274.73,120.27,295.47,0,295.47,0c0,0-57.56,122.51,18.4,248.84,41.05,68.28,149.28,161.79,175.05,239.29,57.26,172.13-59.04,332.44-186.26,350.13,158.57-4.99,294.29-131.05,294.29-296.61,0-96.64-45.14-175.9-112.31-235.4Z"/>
      <path class="cls-6" d="M302.66,838.27c127.22-17.69,243.52-178,186.26-350.13-25.78-77.5-135.88-172.62-175.05-239.29-42.6-72.51-52.73-155.41-18.4-248.84,0,0-117.16,67.76-111.76,209.62,1.61,42.44,7.93,86.38,107.81,204.85,118.59,140.67,139.65,334.25,11.14,423.79Z"/>
      <path class="cls-5" d="M349.13,501.16c-14.32-28.22-32.19-55.7-53.3-81.49,7.16,12.89,11.28,27.7,11.28,43.49,0,78.71-94.65,117.21-153.08,63.79-54.71-50.01-61.06-158.62-15.6-233.76,0,0-102.67,79.55-111.05,212.52-8.39,132.97,82.29,242.7,189.27,242.7,119.69,0,188.89-118.21,132.47-247.25Z"/>
      <path class="cls-3" d="M464.69,488.14c53.81,161.76-29.8,314.8-146.96,347.33,121.1-27.65,226.18-182.04,171.19-347.33-25.78-77.5-135.88-172.62-175.05-239.29C252.1,143.7,277.51,45.29,295.61,0c.32-.19-67.75,143.69-5.98,248.83,39.17,66.67,149.27,161.79,175.05,239.29Z"/>
      <path class="cls-8" d="M57.93,504.01c8.54,125.79,110.06,175.21,194.52,153.64,96.92-24.75,130.4-132.96,42.83-238.67,7.88,13.36,11.84,27.56,11.84,44.19,0,78.71-94.65,117.21-153.08,63.79-54.71-50.01-61.06-158.62-15.6-233.76,0,0-89.88,72.67-80.51,210.81Z"/>
      <g>
        <path class="cls-4" d="M170.72,320.98s-43.69,103.54,7.98,162.28c30.37,34.54,84.85,10.2,81.06-30.09-4.49-47.62-82.74-82.77-89.04-132.19Z"/>
        <path class="cls-2" d="M199.81,441.04c21.74,28.78,50.8,22.41,53.91,4.69,1.06-6.07-.05-11.51-2.47-16.77-15.25-25.84-47.25-49.25-66.11-75.28-7.52-10.38-12.95-21.17-14.42-32.7,0,0-1.46,79.63,29.09,120.06Z"/>
      </g>
      <path class="cls-1" d="M252.44,657.65c-84.46,21.56-185.98-27.86-194.52-153.64-.69,5.52-.61,1.81,0,10.78,8.54,125.79,110.06,178.8,194.52,157.24,59.99-15.32,95.4-66.74,92.97-126.01,0,48.18-33.04,96.33-92.97,111.63Z"/>
    </g>
  </g>
</svg>